#!OML:ASF I:\Actors\actors\Patient Classification 2\Patient 1\Session 1\actor1.ASF
:FULLY-SPECIFIED
:DEGREES
526
root -0.477933 18.8386 5.38218 4.77645 1.60398 -0.0472319
lowerback 13.2681 -0.727934 0.103562
upperback -0.408957 -0.882537 0.851169
thorax -7.88373 -0.413001 1.0215
lowerneck -23.4558 -2.06842 -3.19527
upperneck 1.20998 -2.15835 3.93058
head 4.07283 -0.828107 1.53882
rclavicle -9.34288e-015 -3.37934e-015
rhumerus 18.3529 30.3484 -63.5693
rradius 53.3894
rwrist 0.41628
rhand -11.1658 -31.5631
rfingers 7.12502
rthumb 14.8607 -61.0101
lclavicle -9.34288e-015 -3.37934e-015
lhumerus 18.7486 -25.4549 76.1738
lradius 59.0561
lwrist 28.212
lhand -4.72518 -20.738
lfingers 7.12502
lthumb 21.0574 8.1387
rfemur 2.59028 2.76935 13.4303
rtibia -2.22639e-014
rfoot -18.4689 -14.6225
rtoes 0.46684
lfemur -10.8878 -3.8749 -14.3214
ltibia 21.7169
lfoot -17.8424 10.1376
ltoes -55.0709
527
root -0.477665 18.8363 5.36329 4.66043 1.66067 -0.038601
lowerback 13.3565 -0.70961 0.0519184
upperback -0.350145 -0.864063 0.876082
thorax -7.86972 -0.40152 1.07429
lowerneck -23.5036 -2.1301 -3.34135
upperneck 1.37017 -2.21302 4.0666
head 4.13591 -0.84586 1.59926
rclavicle 9.93923e-016 7.35503e-015
rhumerus 17.0242 30.911 -64.1502
rradius 53.5073
rwrist 0.870529
rhand -11.3447 -31.5016
rfingers 7.12502
rthumb 14.6884 -60.9613
lclavicle 9.93923e-016 7.35503e-015
lhumerus 17.3103 -26.07 76.9333
lradius 58.928
lwrist 28.0175
lhand -4.64193 -20.7519
lfingers 7.12502
lthumb 21.1374 8.11591
rfemur 2.66816 2.65324 13.4148
rtibia 1.11319e-014
rfoot -18.4401 -14.5192
rtoes 0.528683
lfemur -10.858 -3.84628 -14.3313
ltibia 21.7587
lfoot -17.8064 10.047
ltoes -55.0662
528
root -0.477057 18.8348 5.3419 4.57687 1.71396 -0.119615
lowerback 13.4409 -0.716254 0.0846384
upperback -0.279919 -0.864001 0.920622
thorax -7.84178 -0.402036 1.10367
lowerneck -23.5466 -2.16097 -3.30867
upperneck 1.50042 -2.26278 4.03893
head 4.18411 -0.870852 1.57988
rclavicle 2.83268e-015 -6.55989e-015
rhumerus 15.7313 31.4254 -64.7713
rradius 53.6638
rwrist 1.35471
rhand -11.4839 -31.4146
rfingers 7.12502
rthumb 14.5543 -60.884
lclavicle 2.83268e-015 -6.55989e-015
lhumerus 15.941 -26.6441 77.5856
lradius 58.786
lwrist 27.8799
lhand -4.65396 -20.6749
lfingers 7.12502
lthumb 21.1259 8.19415
rfemur 2.6967 2.54431 13.4978
rtibia 4.77083e-015
rfoot -18.435 -14.4384
rtoes 0.51955
lfemur -10.8597 -3.78751 -14.2475
ltibia 21.7865
lfoot -17.7197 10.0194
ltoes -55.2943
529
root -0.47598 18.8345 5.32024 4.53382 1.76947 -0.133941
lowerback 13.5438 -0.72631 0.0887987
upperback -0.243063 -0.876141 0.921235
thorax -7.86027 -0.407969 1.10572
lowerneck -23.4819 -2.14481 -3.1931
upperneck 1.55564 -2.26916 3.94475
head 4.18982 -0.879733 1.53104
rclavicle -3.97569e-016 -5.96354e-016
rhumerus 14.3879 31.8668 -65.4683
rradius 53.8139
rwrist 1.667
rhand -11.4354 -31.4289
rfingers 7.12502
rthumb 14.601 -60.8949
lclavicle -3.97569e-016 -5.96354e-016
lhumerus 14.6017 -27.205 78.1958
lradius 58.5956
lwrist 27.826
lhand -4.53262 -20.6302
lfingers 7.12502
lthumb 21.2424 8.22577
rfemur 2.68581 2.4227 13.4986
rtibia -9.54166e-015
rfoot -18.4066 -14.3679
rtoes 0.467603
lfemur -10.8942 -3.84548 -14.2318
ltibia 21.8056
lfoot -17.6962 10.0534
ltoes -55.4086
530
root -0.473025 18.8343 5.2974 4.53798 1.82794 -0.0510161
lowerback 13.6677 -0.718851 0.0535808
upperback -0.237791 -0.873679 0.888447
thorax -7.92475 -0.405671 1.09238
lowerneck -23.3498 -2.14756 -3.20702
upperneck 1.56272 -2.2733 3.95074
head 4.17378 -0.882862 1.53507
rclavicle 5.01931e-015 -1.39149e-015
rhumerus 13.1216 32.1761 -66.1613
rradius 53.8485
rwrist 1.82343
rhand -11.2826 -31.456
rfingers 7.12502
rthumb 14.7483 -60.9113
lclavicle 5.01931e-015 -1.39149e-015
lhumerus 13.2805 -27.7317 78.879
lradius 58.4236
lwrist 27.6797
lhand -4.39352 -20.592
lfingers 7.12502
lthumb 21.376 8.2489
rfemur 2.62299 2.28441 13.3788
rtibia -1.59028e-014
rfoot -18.3673 -14.2762
rtoes 0.597076
lfemur -10.9844 -3.93539 -14.3184
ltibia 21.8163
lfoot -17.7023 10.025
ltoes -55.29
531
root -0.469525 18.8328 5.27297 4.57461 1.88957 -0.0179882
lowerback 13.7789 -0.712273 0.105546
upperback -0.232341 -0.858237 0.858736
thorax -7.98337 -0.400564 1.03008
lowerneck -23.24 -2.15988 -3.21838
upperneck 1.60525 -2.29138 3.9602
head 4.17261 -0.892159 1.53828
rclavicle 6.85807e-015 -9.93923e-016
rhumerus 11.9065 32.398 -66.8333
rradius 53.9038
rwrist 1.89925
rhand -11.1568 -31.6249
rfingers 7.12502
rthumb 14.8694 -61.0713
lclavicle 6.85807e-015 -9.93923e-016
lhumerus 11.9746 -28.2348 79.524
lradius 58.3411
lwrist 27.484
lhand -4.41536 -20.4938
lfingers 7.12502
lthumb 21.355 8.34943
rfemur 2.51551 2.14345 13.3165
rtibia 1.27222e-014
rfoot -18.2815 -14.1909
rtoes 0.624826
lfemur -11.1207 -3.9153 -14.3516
ltibia 21.8096
lfoot -17.607 9.93297
ltoes -55.3067
532
root -0.466744 18.8317 5.24755 4.65571 1.95601 -0.0172464
lowerback 13.8311 -0.701799 0.176385
upperback -0.221678 -0.834264 0.837046
thorax -8.00314 -0.392173 0.962738
lowerneck -23.1119 -2.1416 -3.15004
upperneck 1.6808 -2.2852 3.88447
head 4.17603 -0.894533 1.50424
rclavicle -2.43511e-015 4.77083e-015
rhumerus 10.7022 32.567 -67.4546
rradius 54.0391
rwrist 1.86327
rhand -11.0352 -31.7422
rfingers 7.12502
rthumb 14.9866 -61.1799
lclavicle -2.43511e-015 4.77083e-015
lhumerus 10.6549 -28.6824 80.1448
lradius 58.357
lwrist 27.3588
lhand -4.40055 -20.3645
lfingers 7.12502
lthumb 21.3693 8.47717
rfemur 2.35674 1.99543 13.2953
rtibia -7.15625e-015
rfoot -18.1767 -14.0984
rtoes 0.863648
lfemur -11.3135 -3.81833 -14.3444
ltibia 21.8062
lfoot -17.4517 9.80322
ltoes -55.394
533
root -0.463844 18.8321 5.22241 4.7495 2.0077 -0.00922661
lowerback 13.8492 -0.69073 0.193696
upperback -0.198241 -0.815718 0.849377
thorax -7.98847 -0.383689 0.962283
lowerneck -22.9107 -2.12888 -3.15601
upperneck 1.75499 -2.26982 3.82956
head 4.16938 -0.892608 1.48973
rclavicle 6.95746e-016 7.7526e-015
rhumerus 9.60298 32.6652 -68.0003
rradius 54.15
rwrist 1.93906
rhand -10.4956 -31.6625
rfingers 7.12502
rthumb 15.5063 -61.0607
lclavicle 6.95746e-016 7.7526e-015
lhumerus 9.35679 -29.0046 80.7855
lradius 58.4277
lwrist 27.2864
lhand -4.23839 -20.2391
lfingers 7.12502
lthumb 21.525 8.58482
rfemur 2.18257 1.85982 13.2646
rtibia 3.18055e-015
rfoot -18.1088 -14.0075
rtoes 1.20413
lfemur -11.5389 -3.7435 -14.3422
ltibia 21.855
lfoot -17.3802 9.68378
ltoes -55.3585
534
root -0.460475 18.8334 5.19772 4.80309 2.03237 -0.00991626
lowerback 13.9131 -0.706077 0.219881
upperback -0.160223 -0.829848 0.870081
thorax -7.98353 -0.39114 0.972992
lowerneck -22.6504 -2.12409 -3.21063
upperneck 1.8063 -2.2578 3.82892
head 4.14851 -0.89004 1.50006
rclavicle -2.13694e-015 1.51076e-014
rhumerus 8.59772 32.7556 -68.5863
rradius 54.2349
rwrist 2.10699
rhand -10.0035 -31.7841
rfingers 7.12502
rthumb 15.9803 -61.1449
lclavicle -2.13694e-015 1.51076e-014
lhumerus 8.14614 -29.25 81.3
lradius 58.4769
lwrist 27.2031
lhand -4.13649 -20.2393
lfingers 7.12502
lthumb 21.6229 8.57335
rfemur 2.0451 1.75615 13.2406
rtibia 7.95139e-015
rfoot -18.0632 -13.9376
rtoes 1.52653
lfemur -11.7529 -3.72084 -14.3388
ltibia 21.9782
lfoot -17.4119 9.64188
ltoes -55.3459
535
root -0.449448 18.8335 5.16921 4.75992 2.12991 -0.245339
lowerback 14.1562 -0.788296 0.654964
upperback -0.126045 -0.862887 0.896545
thorax -8.08998 -0.423545 0.765576
lowerneck -22.3601 -2.09115 -3.16446
upperneck 1.86773 -2.23217 3.77165
head 4.12397 -0.883692 1.47789
rclavicle 1.59028e-015 4.77083e-015
rhumerus 7.58265 32.8689 -69.2293
rradius 54.3456
rwrist 2.04696
rhand -10.1803 -32.0012
rfingers 7.12502
rthumb 15.81 -61.3756
lclavicle 1.59028e-015 4.77083e-015
lhumerus 7.0126 -29.5142 81.6869
lradius 58.5258
lwrist 27.0491
lhand -4.08379 -20.1686
lfingers 7.12502
lthumb 21.6735 8.63827
rfemur 2.00933 1.61027 13.4643
rtibia 5.56597e-015
rfoot -17.995 -13.9281
rtoes 1.51922
lfemur -11.8857 -3.68275 -14.1023
ltibia 22.1156
lfoot -17.411 9.54053
ltoes -55.3562
